<svg xmlns="http://www.w3.org/2000/svg" width="100%" height="100%" fill="currentColor" viewBox="0 0 32 32"><path d="M32 10.909l-.024-.116-.023-.067c-.013-.032-.024-.067-.04-.1-.004-.024-.02-.045-.027-.067l-.047-.089-.04-.067-.059-.08-.061-.06-.08-.06-.061-.04-.08-.059-.059-.053-.02-.027L16.772.252a1.367 1.367 0 00-1.523 0L.444 10.135l-.051.053-.067.075-.049.06-.067.08c-.027.023-.04.04-.04.061l-.067.08-.027.08c-.027.013-.027.053-.04.093l-.013.067c-.025.041-.025.081-.025.121v9.996c0 .059.004.12.013.18l.013.061c.007.04.013.08.027.115l.02.067c.013.036.021.071.036.1l.029.067c0 .013.02.053.04.08l.04.053c.02.013.04.053.06.08l.04.053.053.053c.013.017.013.04.04.04l.08.056.053.04.013.019 14.627 9.773c.219.16.5.217.76.217s.52-.08.76-.24l14.877-9.875.069-.077.044-.06.053-.08.04-.067.04-.093.021-.069.04-.103.02-.06.04-.107v-10c0-.067 0-.127-.021-.187l-.019-.06.059.004zm-15.987 8.374l-4.867-3.253 4.867-3.256 4.867 3.253zm-1.378-8.899l-5.964 3.987-4.817-3.221 10.781-7.187zm-8.44 5.644l-3.443 2.307v-4.601zm2.476 1.667l5.964 3.987v6.427L3.854 20.921l4.824-3.223zm8.716 3.986l5.965-3.973 4.817 3.227-10.783 7.187zm8.44-5.64l3.444-2.293v4.608zm-2.474-1.653L17.389 10.4V3.96l10.78 7.187-4.816 3.22z"/></svg>
