<svg xmlns="http://www.w3.org/2000/svg" width="100%" height="100%" viewBox="0 0 93 11" xml:space="preserve"><path fill="#00bea0" d="M.7 5.3V5l5.7-3.5.5.7-4.8 2.9 4.8 2.8-.5.7L.7 5.3z"/><path fill="#e0e2ef" d="M15 3h1.4V1.8l.9-.3V3h3.2v.8h-3.2v2.8c0 .6.1 1 .4 1.3.3.3.7.4 1.2.4.4 0 .7-.1.9-.2.3-.1.5-.3.7-.4l.5.7c-.3.2-.6.4-1 .5s-.8.2-1.2.2c-.3 0-.6 0-.9-.1-.3-.1-.5-.2-.8-.4-.2-.2-.4-.4-.5-.7-.1-.3-.2-.7-.2-1.1v-3H15V3zM23.1 9v-.8h2.1V3.8h-2.1V3h3v5.2h2V9h-5zm1.7-7.7c0-.2.1-.4.2-.6.1-.2.3-.2.6-.2.2 0 .4.1.6.2.2.2.2.3.2.6 0 .2-.1.4-.2.5-.2.2-.4.2-.6.2-.2 0-.4 0-.6-.2-.1-.1-.2-.3-.2-.5zM29.4 3h1.4V1.8l.9-.3V3H35v.8h-3.2v2.8c0 .6.1 1 .4 1.3.3.3.7.4 1.2.4.4 0 .7-.1.9-.2.3-.1.5-.2.7-.4l.3.7c-.3.2-.6.4-1 .5s-.8.2-1.2.2c-.3 0-.6 0-.9-.1-.3-.1-.5-.2-.8-.4-.2-.2-.4-.4-.5-.7-.1-.3-.2-.7-.2-1.1v-3h-1.4V3zM42.5 8.2c-.1.1-.3.2-.5.4l-.6.3c-.2.1-.5.1-.7.2-.3 0-.5.1-.8.1-.5 0-.9-.1-1.3-.2s-.7-.4-.9-.6c-.2-.3-.4-.6-.6-1-.1-.5-.1-.9-.1-1.4 0-.5.1-1 .2-1.3.1-.4.3-.7.6-1 .3-.3.6-.5 1-.6.4-.1.8-.2 1.3-.2.3 0 .7 0 1 .1.3.1.6.3.9.5.3.2.4.6.6 1 .1.4.2 1 .1 1.7H38c0 .7.2 1.3.6 1.6.4.4.9.5 1.5.5.2 0 .4 0 .6-.1.2-.1.4-.1.6-.2.2-.1.4-.2.5-.2s.3-.2.3-.2l.4.6zM40 3.6c-.3 0-.5 0-.7.1-.3.1-.5.2-.6.3-.2.1-.3.3-.4.5-.2.2-.3.5-.3.8h3.7c0-.5-.2-.9-.5-1.2-.3-.3-.7-.5-1.2-.5zM43.7.6h1.9v5h.7L48.7 3h1.1l-2.7 2.8 2.2 2.4h.8V9h-1.2l-2.6-2.7h-.7V9h-.9V1.4h-1V.6zM51.9 3.5c.3-.2.7-.3 1.2-.4.4-.1.9-.1 1.3-.1s.7.1 1 .2.5.3.6.5.2.4.3.7.1.5.1.8v2c0 .4 0 .8.1 1.1h.8V9h-1.6l-.1-.9h-.1c0 .1-.1.2-.2.3-.1.1-.2.2-.4.3s-.5.2-.7.3-.5.1-.8.1c-.6 0-1.1-.2-1.4-.5-.3-.3-.5-.7-.5-1.2 0-.4.1-.7.3-1 .2-.3.4-.5.8-.6.3-.1.7-.2 1.2-.3.5 0 1 0 1.6.1v-.9c0-.2-.1-.4-.2-.6-.1-.1-.2-.2-.4-.3-.2-.1-.4-.1-.7-.1-.4 0-.7 0-1 .2l-.9.3-.3-.7zm1.8 4.8c.2 0 .4 0 .6-.1.2-.1.4-.2.5-.3.1-.1.3-.2.4-.4s.2-.3.2-.4v-.8c-.4-.1-.8-.1-1.2-.1-.4 0-.7 0-.9.1s-.5.2-.6.4c-.1.2-.2.4-.2.6 0 .3.1.5.3.7.1.2.4.3.9.3zM58.6 9v-.8h1.6V3.8h-1.6V3h2.2l.2.8h.1c.3-.2.6-.5.9-.6.3-.2.7-.3 1.2-.3.3 0 .5.1.7.2.2.1.3.3.4.5.1.2.2.4.2.7v1h-.8c0-.5 0-.9-.1-1.1-.1-.2-.3-.4-.5-.4s-.5 0-.7.1c-.2.1-.4.2-.5.3-.1.1-.3.2-.4.3-.1.1-.2.2-.2.3v3.5h2.3V9h-5zM65.7 6c0-1 .3-1.7.8-2.3.5-.6 1.2-.8 2.2-.8.5 0 .9.1 1.3.2.4.2.7.4.9.7.2.3.4.6.5 1 .1.4.2.8.2 1.2 0 .5-.1.9-.2 1.3s-.3.7-.6 1c-.2.3-.6.5-.9.6-.4.1-.8.2-1.2.2-.5 0-.9-.1-1.3-.2-.4-.2-.7-.4-.9-.7-.2-.3-.4-.6-.5-1-.3-.3-.3-.8-.3-1.2zm1 0c0 .3 0 .6.1.8.1.3.2.5.3.8.2.2.3.4.6.5.2.1.5.2.9.2.6 0 1.1-.2 1.4-.6.3-.4.5-1 .5-1.7 0-.3 0-.6-.1-.8-.1-.3-.2-.5-.3-.8-.2-.2-.4-.4-.6-.5s-.5-.2-.9-.2c-.6 0-1.1.2-1.4.6-.4.3-.5.9-.5 1.7z"/><path fill="#00bea0" d="M84.8.5l.8.3-4.4 9.9-.8-.3L84.8.5zM87.6 8.6l-.5-.7 4.8-2.8-4.8-2.8.5-.7L93.3 5v.3l-5.7 3.3z"/></svg>
